<svg width="21" height="18" viewBox="0 0 21 18" fill="none" xmlns="http://www.w3.org/2000/svg">
<path d="M19.1682 0H1.37657C0.767337 0 0.272705 0.44428 0.272705 0.99348V17.0059C0.272705 17.5551 0.767337 18 1.37657 18H10.955V11.0293H8.34884V8.31239H10.955V6.30883C10.955 3.98429 12.5321 2.71784 14.8367 2.71784C15.9415 2.71784 16.889 2.79223 17.1653 2.82454V5.2543L15.5668 5.25489C14.3137 5.25489 14.072 5.79105 14.072 6.57736V8.3115H17.0615L16.6707 11.0282H14.0717V17.9991H19.1679C19.7777 17.9991 20.2727 17.5536 20.2727 17.0059V0.992887C20.2724 0.44428 19.7781 0 19.1682 0Z" fill="white"/>
</svg>
