<svg width="15" height="15" viewBox="0 0 15 15" fill="none" xmlns="http://www.w3.org/2000/svg">
<path d="M14.3699 5.71943H7.19538V9.03521H10.8037C10.3187 10.4105 9.14309 11.2457 7.64092 11.2457C5.63264 11.2457 3.87039 9.52339 3.87039 7.56008C3.87039 5.59824 5.63264 3.87735 7.64092 3.87735C8.60109 3.87735 9.41277 4.18316 9.98836 4.76117L10.2496 5.02385L12.7237 2.55652L12.4548 2.29605C11.2836 1.1613 9.61933 0.561523 7.64096 0.561523C3.66241 0.561567 0.54541 3.63566 0.54541 7.56008C0.54541 11.486 3.66241 14.5615 7.64092 14.5615C11.3084 14.5615 13.9141 12.4158 14.4412 8.9619C14.51 8.51388 14.5451 8.04233 14.5454 7.56008C14.5454 7.03067 14.5 6.45628 14.4239 6.02411L14.3699 5.71943Z" fill="white"/>
</svg>
