<svg width="21" height="16" viewBox="0 0 21 16" fill="none" xmlns="http://www.w3.org/2000/svg">
<path fill-rule="evenodd" clip-rule="evenodd" d="M18.2195 3.82667C18.2195 3.99086 18.2195 4.15543 18.2195 4.32038C18.2195 9.46324 14.1955 15.3467 6.86847 15.3467C4.58141 15.3467 2.50612 14.7295 0.727295 13.6187C1.02377 13.6598 1.36259 13.6598 1.70141 13.6598C3.56494 13.6598 5.30141 13.0427 6.65671 12.0141C4.92024 11.973 3.43788 10.8621 2.92965 9.29829C3.14141 9.38095 3.39553 9.38095 3.64965 9.38095C4.03082 9.38095 4.36965 9.33981 4.70847 9.25714C2.88729 8.88724 1.532 7.32343 1.532 5.43124V5.3901C2.04024 5.67771 2.67553 5.84267 3.31082 5.88381C2.252 5.18438 1.532 3.99086 1.532 2.63314C1.532 1.93371 1.74377 1.27543 2.08259 0.699429C4.07318 3.04457 6.99553 4.608 10.3414 4.73181C10.2567 4.48457 10.2144 4.15543 10.2144 3.86781C10.2144 1.728 11.9932 0 14.2379 0C15.3814 0 16.3983 0.452571 17.1183 1.19352C18.0496 1.02857 18.8971 0.699429 19.6591 0.288C19.363 1.19352 18.7273 1.93371 17.923 2.42743C18.7273 2.30438 19.4896 2.09829 20.21 1.81029C19.6591 2.592 18.9814 3.25029 18.2195 3.82667Z" fill="white"/>
</svg>
